<svg xmlns="http://www.w3.org/2000/svg"  viewBox="0 0 64 64" width="256px" height="256px"><radialGradient id="bG1znYnG~pi9xCRqtI37ea" cx="32" cy="-102" r="31.016" gradientTransform="matrix(1 0 0 -1 0 -72)" gradientUnits="userSpaceOnUse"><stop offset="0" stop-color="#8deeff"/><stop offset=".193" stop-color="#a0f0ff"/><stop offset=".703" stop-color="#c8f7ff"/><stop offset="1" stop-color="#d6f9ff"/></radialGradient><path fill="url(#bG1znYnG~pi9xCRqtI37ea)" d="M56.172,28H60c2.339,0,4.209-2.008,3.981-4.393C63.782,21.527,61.917,20,59.828,20h-6.72	c-0.996,0-1.92-0.681-2.08-1.664C50.823,17.083,51.785,16,53,16h1.5c2.631,0,4.735-2.258,4.479-4.942	C58.756,8.718,56.657,7,54.306,7H45.5C44.672,7,44,6.328,44,5.5S44.672,4,45.5,4h3.393c0.996,0,1.92-0.681,2.08-1.664	C51.177,1.083,50.215,0,49,0H15.107c-0.996,0-1.92,0.681-2.08,1.664C12.823,2.917,13.785,4,15,4h2.5C18.328,4,19,4.672,19,5.5	S18.328,7,17.5,7h-6.806c-2.35,0-4.449,1.718-4.672,4.058C5.765,13.742,7.869,16,10.5,16h0.393c0.996,0,1.92,0.681,2.08,1.664	C13.177,18.917,12.215,20,11,20H4.693c-2.35,0-4.449,1.718-4.672,4.058C-0.235,26.742,1.869,29,4.5,29h3.807	c2.35,0,4.449,1.718,4.672,4.058C13.235,35.742,11.131,38,8.5,38H8.215c-2.611,0-4.944,1.909-5.191,4.509	C2.739,45.491,5.077,48,8,48h5.5c1.381,0,2.5,1.119,2.5,2.5l0,0c0,1.381-1.119,2.5-2.5,2.5h-0.802c-1.895,0-3.594,1.419-3.693,3.312	C8.899,58.33,10.505,60,12.5,60h38.352c2.077,0,3.932-1.519,4.13-3.586c0.226-2.372-1.633-4.368-3.959-4.368h-0.5	c-1.946,0-3.523-1.577-3.523-3.523l0,0C47,46.577,48.577,45,50.523,45h5.784c2.35,0,4.449-1.719,4.672-4.058	C61.235,38.258,59.131,36,56.5,36H56c-2.339,0-4.209-2.008-3.981-4.393C52.217,29.527,54.083,28,56.172,28z"/><linearGradient id="bG1znYnG~pi9xCRqtI37eb" x1="30.5" x2="30.5" y1="3" y2="55" gradientUnits="userSpaceOnUse"><stop offset="0" stop-color="#42d778"/><stop offset=".428" stop-color="#3dca76"/><stop offset="1" stop-color="#34b171"/></linearGradient><path fill="url(#bG1znYnG~pi9xCRqtI37eb)" d="M46,3h-9.412c-0.363,0-0.698,0.197-0.874,0.514l-4.428,7.971	C31.109,11.803,30.775,12,30.412,12H15c-0.552,0-1,0.448-1,1v11c0,0.552,0.448,1,1,1h8.266c0.77,0,1.251,0.834,0.865,1.501	l-9.996,17.267C14.046,43.92,14,44.093,14,44.269V54c0,0.552,0.448,1,1,1h9.412c0.363,0,0.698-0.197,0.874-0.514l4.428-7.971	C29.891,46.197,30.225,46,30.588,46H46c0.552,0,1-0.448,1-1V34c0-0.552-0.448-1-1-1h-7.344c-0.753,0-1.235-0.8-0.885-1.466	l9.113-17.316C46.961,14.075,47,13.915,47,13.753V4C47,3.448,46.552,3,46,3z"/></svg>